# xmcd
#
# Track frame offsets: 
#        150
#        11053
#        30063
#        51053
#        72188
#        96620
#        109438
#        132508
#        147248
#        159308
#        175765
#        198640
#        214888
#        237830
#        262043
#
# Disc length: 3627 seconds
#
# Revision: 12
# Processed by: cddbd v1.5.2PL0 Copyright (c) Steve Scherf et al.
# Submitted via: ExactAudioCopy v0.99pb4
#
DISCID=db0e290f
DTITLE=Stan Getz - Getz For Lovers
DYEAR=2002
DGENRE=Jazz
TTITLE0=Moonlight In Vermont
TTITLE1=Corcovado (Quiet Nights Of Quiet Stars)
TTITLE2=I'm Glad There Is You
TTITLE3=But Beautiful
TTITLE4=O Grande Amor
TTITLE5=Alfie
TTITLE6=Here's That Rainy Day
TTITLE7=Body And Soul
TTITLE8=The Look Of Love
TTITLE9=Little Girl Blue
TTITLE10=Para Machuchar Meu Coraçao
TTITLE11=Detour Ahead
TTITLE12=Melinda
TTITLE13=The Girl From Ipanema
TTITLE14=If Ever I Would Leave You
EXTD=
EXTT0=
EXTT1=
EXTT2=
EXTT3=
EXTT4=
EXTT5=
EXTT6=
EXTT7=
EXTT8=
EXTT9=
EXTT10=
EXTT11=
EXTT12=
EXTT13=
EXTT14=
PLAYORDER=
